<?xml version="1.0" encoding="UTF-8"?>
<svg width="109px" height="28px" viewBox="0 0 109 28" version="1.1" xmlns="http://www.w3.org/2000/svg" xmlns:xlink="http://www.w3.org/1999/xlink">
    <!-- Generator: Sketch 46.1 (44463) - http://www.bohemiancoding.com/sketch -->
    <title>Logo/logo-criipto-dark</title>
    <desc>Created with Sketch.</desc>
    <defs></defs>
    <g id="Symbols" stroke="none" stroke-width="1" fill="none" fill-rule="evenodd">
        <g id="Logo/logo-criipto-dark" fill="#2D3E50">
            <g id="Logo">
                <g>
                    <path d="M12.96,4.8 C12.96,2.15 10.651,0 8,0 C5.349,0 3.04,2.15 3.04,4.8 L3.04,7 C1.272,7 0,8.433 0,10.2 L0,17.8 C0,19.568 1.433,21 3.2,21 L12.8,21 C14.567,21 16,19.568 16,17.8 L16,10.2 C16,8.433 14.728,7 12.96,7 L12.96,4.8 Z M4,4.8 C4,2.683 5.883,0.96 8,0.96 C10.117,0.96 12,2.683 12,4.8 L12,7 L4,7 L4,4.8 Z M15.04,17.8 C15.04,19.035 14.035,20.04 12.8,20.04 L3.2,20.04 C1.965,20.04 0.96,19.035 0.96,17.8 L0.96,10.2 C0.96,8.965 1.965,7.96 3.2,7.96 L12.8,7.96 C14.035,7.96 15.04,8.965 15.04,10.2 L15.04,17.8 Z" id="Fill-4"></path>
                    <path d="M8,16 L8,16 C7.448,16 7,15.553 7,15 L7,12.92 C7,12.368 7.448,12 8,12 C8.552,12 9,12.368 9,12.92 L9,15 C9,15.553 8.552,16 8,16" id="Fill-6"></path>
                </g>
            </g>
            <g id="Logo/Logotype_dark" transform="translate(23.000000, 0.000000)">
                <g id="Logotype">
                    <path d="M68.5288,12.9995 C68.5288,8.8125 71.5688,5.0915 76.8158,5.0915 C82.0628,5.0915 85.1018,8.8125 85.1018,12.9995 C85.1018,17.1865 82.0628,20.9085 76.8158,20.9085 C71.5688,20.9085 68.5288,17.1865 68.5288,12.9995 L68.5288,12.9995 Z M69.8478,12.9995 C69.8478,16.4015 72.1708,19.7455 76.8158,19.7455 C81.4608,19.7455 83.7838,16.4015 83.7838,12.9995 C83.7838,9.5975 81.4608,6.2535 76.8158,6.2535 C72.1708,6.2535 69.8478,9.5975 69.8478,12.9995 L69.8478,12.9995 Z M61.0738,5.5565 L57.7478,5.5565 L57.7478,6.7195 L61.0738,6.7195 L61.0738,16.7215 C61.0738,19.5705 61.5908,20.7335 64.6588,20.7335 C65.3758,20.7335 66.2068,20.7055 66.8948,20.5595 L66.8948,19.3965 C66.2928,19.4545 65.6618,19.5705 65.0598,19.5705 C63.4248,19.5705 62.3928,19.2805 62.3928,17.4485 L62.3928,6.7195 L66.7518,6.7195 L66.7518,5.5565 L62.3928,5.5565 L62.3928,0.9995 L61.0738,0.9995 L61.0738,5.5565 Z M48.8878,6.2535 C43.3828,6.2535 42.0068,10.2085 42.0068,12.8535 C42.0068,18.0875 45.7338,19.7455 48.7168,19.7455 C52.0988,19.7455 55.2538,17.5935 55.2538,13.0575 C55.2538,8.7835 52.5298,6.2535 48.8878,6.2535 L48.8878,6.2535 Z M40.8598,27.9995 L40.8598,5.5565 L42.1778,5.5565 L42.1778,8.8125 L42.2358,8.8125 C42.9248,7.0395 44.9598,5.0915 48.7448,5.0915 C53.9058,5.0915 56.5728,8.8125 56.5728,13.0285 C56.5728,17.7675 53.2168,20.9085 48.7448,20.9085 C45.1318,20.9085 43.0958,18.9025 42.2358,17.2735 L42.1778,17.2735 L42.1778,27.9995 L40.8598,27.9995 Z M35.6708,2.9995 L36.9898,2.9995 L36.9898,-0.0005 L35.6708,-0.0005 L35.6708,2.9995 Z M35.6708,20.4435 L36.9898,20.4435 L36.9898,5.5565 L35.6708,5.5565 L35.6708,20.4435 Z M29.9898,2.9995 L31.3088,2.9995 L31.3088,-0.0005 L29.9898,-0.0005 L29.9898,2.9995 Z M29.9898,20.4435 L31.3088,20.4435 L31.3088,5.5565 L29.9898,5.5565 L29.9898,20.4435 Z M18.9898,20.4435 L20.3088,20.4435 L20.3088,12.3895 C20.3088,9.3655 22.2008,6.4285 26.0148,6.4285 C26.8458,6.4285 27.2188,6.4865 27.5338,6.6035 L27.5338,5.2655 C27.1328,5.1495 26.8458,5.0915 26.4448,5.0915 C23.5778,5.0915 21.3408,6.4575 20.3658,9.0745 L20.3088,9.0745 L20.3088,5.5565 L18.9898,5.5565 L18.9898,20.4435 Z M15.8278,10.2375 C15.6558,7.7075 12.7878,5.0915 8.2868,5.0915 C3.7848,5.0915 -0.0002,7.9115 -0.0002,13.1455 C-0.0002,17.7675 3.4688,20.9085 8.2868,20.9085 C11.9858,20.9085 15.2548,19.1345 16.0288,15.2385 L14.7098,15.2385 C14.0498,18.3205 11.2398,19.7455 8.2868,19.7455 C2.9818,19.7455 1.3188,15.5585 1.3188,13.1455 C1.3188,9.5975 3.6418,6.2535 8.2868,6.2535 C11.8138,6.2535 14.3368,8.3475 14.5088,10.2375 L15.8278,10.2375 Z" id="Fill-1"></path>
                </g>
            </g>
        </g>
    </g>
</svg>